<svg width="20" height="20" viewBox="0 0 20 20" fill="none" xmlns="http://www.w3.org/2000/svg">
  <path d="M14.4 10.5C14.4 8.2 16.2 7 16.3 6.9C15.2 5.3 13.5 5.1 12.9 5C11.4 4.8 10 5.9 9.2 5.9C8.4 5.9 7.2 5 5.9 5C4.3 5 2.8 6 1.9 7.5C0.1 10.5 1.4 15 3.1 17.4C4 18.6 5 19.9 6.3 19.9C7.6 19.9 8 19.1 9.5 19.1C11 19.1 11.4 19.9 12.7 19.9C14.1 19.9 15 18.7 15.8 17.5C16.8 16.1 17.2 14.8 17.2 14.7C17.2 14.6 14.4 13.7 14.4 10.5Z" fill="white"/>
  <path d="M12.7 3.5C13.4 2.6 13.9 1.4 13.8 0.2C12.7 0.3 11.4 0.9 10.7 1.8C10 2.6 9.4 3.8 9.6 5C10.8 5.1 12 4.5 12.7 3.5Z" fill="white"/>
</svg> 