<svg width="680" height="680" viewBox="0 0 680 680" fill="none" xmlns="http://www.w3.org/2000/svg">
<path d="M149.94 323C67.1303 323 8.00521e-07 255.87 1.78801e-06 173.06L2.0518e-06 150.94C3.03929e-06 68.1303 67.1303 1 149.94 1L172.06 1C254.87 1 322 68.1303 322 150.94L322 323L149.94 323Z" fill="#FF9212"/>
<path d="M358 161C358 72.0822 430.082 0 519 0C607.918 0 680 72.0822 680 161C680 249.918 607.918 322 519 322C430.082 322 358 249.918 358 161Z" fill="#FFB151"/>
<path d="M0 519C0 430.082 72.0822 358 161 358C249.918 358 322 430.082 322 519C322 607.918 249.918 680 161 680C72.0822 680 0 607.918 0 519Z" fill="#FFB151"/>
<path d="M530.06 358C612.87 358 680 425.13 680 507.94L680 530.06C680 612.87 612.87 680 530.06 680L507.94 680C425.13 680 358 612.87 358 530.06L358 358L530.06 358Z" fill="#FF9212"/>
</svg>
