<svg width="20" height="20" viewBox="0 0 20 20" fill="none" xmlns="http://www.w3.org/2000/svg">
  <path d="M10 1.8C12.7 1.8 13 1.8 14.1 1.9C15.2 1.9 15.7 2.1 16.1 2.3C16.6 2.5 17 2.7 17.3 3.1C17.7 3.4 17.9 3.8 18.1 4.3C18.2 4.7 18.4 5.2 18.5 6.3C18.5 7.3 18.5 7.7 18.5 10.3C18.5 12.9 18.5 13.3 18.5 14.3C18.4 15.4 18.2 15.9 18.1 16.3C17.9 16.8 17.7 17.2 17.3 17.5C17 17.9 16.6 18.1 16.1 18.3C15.7 18.4 15.2 18.6 14.1 18.7C13.1 18.7 12.7 18.7 10 18.7C7.4 18.7 7 18.7 6 18.7C4.9 18.6 4.4 18.4 4 18.3C3.5 18.1 3.1 17.9 2.8 17.5C2.4 17.2 2.2 16.8 2 16.3C1.9 15.9 1.7 15.4 1.6 14.3C1.6 13.3 1.6 12.9 1.6 10.3C1.6 7.7 1.6 7.3 1.6 6.3C1.7 5.2 1.9 4.7 2 4.3C2.2 3.8 2.4 3.4 2.8 3.1C3.1 2.7 3.5 2.5 4 2.3C4.4 2.2 4.9 2 6 1.9C7 1.8 7.4 1.8 10 1.8ZM10 0C7.3 0 6.9 0 5.9 0.1C4.8 0.1 4.1 0.3 3.5 0.6C2.8 0.9 2.3 1.2 1.7 1.7C1.2 2.3 0.9 2.8 0.6 3.5C0.3 4.1 0.1 4.8 0.1 6C0 6.9 0 7.3 0 10C0 12.7 0 13.1 0.1 14.1C0.1 15.2 0.3 15.9 0.6 16.5C0.9 17.2 1.2 17.7 1.7 18.3C2.3 18.8 2.8 19.1 3.5 19.4C4.1 19.7 4.8 19.9 6 19.9C6.9 20 7.3 20 10 20C12.7 20 13.1 20 14.1 19.9C15.2 19.9 15.9 19.7 16.5 19.4C17.2 19.1 17.7 18.8 18.3 18.3C18.8 17.7 19.1 17.2 19.4 16.5C19.7 15.9 19.9 15.2 19.9 14.1C20 13.1 20 12.7 20 10C20 7.3 20 6.9 19.9 6C19.9 4.8 19.7 4.1 19.4 3.5C19.1 2.8 18.8 2.3 18.3 1.7C17.7 1.2 17.2 0.9 16.5 0.6C15.9 0.3 15.2 0.1 14.1 0.1C13.1 0 12.7 0 10 0Z" fill="#999999"/>
  <path d="M10 4.9C7.2 4.9 4.9 7.2 4.9 10C4.9 12.8 7.2 15.1 10 15.1C12.8 15.1 15.1 12.8 15.1 10C15.1 7.2 12.8 4.9 10 4.9ZM10 13.3C8.2 13.3 6.7 11.9 6.7 10C6.7 8.2 8.2 6.7 10 6.7C11.8 6.7 13.3 8.2 13.3 10C13.3 11.9 11.8 13.3 10 13.3Z" fill="#999999"/>
  <path d="M15.3 5.9C16 5.9 16.5 5.4 16.5 4.7C16.5 4 16 3.5 15.3 3.5C14.6 3.5 14.1 4 14.1 4.7C14.1 5.4 14.6 5.9 15.3 5.9Z" fill="#999999"/>
</svg> 