<svg width="20" height="20" viewBox="0 0 20 20" fill="none" xmlns="http://www.w3.org/2000/svg">
  <path d="M18.5 4.2C17.9 4.5 17.2 4.7 16.5 4.8C17.2 4.3 17.8 3.6 18.1 2.7C17.4 3.1 16.6 3.4 15.8 3.6C15.1 2.9 14.1 2.5 13 2.5C10.9 2.5 9.2 4.2 9.2 6.3C9.2 6.6 9.2 6.9 9.3 7.1C6.2 7 3.4 5.4 1.6 3.1C1.3 3.6 1.1 4.3 1.1 5C1.1 6.3 1.7 7.5 2.7 8.2C2.1 8.2 1.5 8 1 7.7V7.8C1 9.6 2.3 11.1 4 11.5C3.7 11.6 3.4 11.6 3.1 11.6C2.9 11.6 2.7 11.6 2.5 11.5C2.9 13 4.3 14.1 6 14.1C4.7 15.1 3.1 15.7 1.3 15.7C1 15.7 0.8 15.7 0.5 15.7C2.2 16.7 4.2 17.3 6.3 17.3C13 17.3 16.8 11.7 16.8 6.8V6.3C17.5 5.8 18.1 5.1 18.5 4.2Z" fill="#999999"/>
</svg> 