<svg width="21" height="21" viewBox="0 0 21 21" fill="none" xmlns="http://www.w3.org/2000/svg">
<g clip-path="url(#clip0_2116_99)">
<path d="M17.8689 14.3356C17.5916 14.9761 17.2634 15.5657 16.8832 16.1077C16.3649 16.8467 15.9405 17.3582 15.6135 17.6423C15.1065 18.1085 14.5633 18.3473 13.9816 18.3609C13.5641 18.3609 13.0605 18.242 12.4743 18.001C11.8862 17.7611 11.3457 17.6423 10.8515 17.6423C10.3332 17.6423 9.77733 17.7611 9.18276 18.001C8.58728 18.242 8.10757 18.3677 7.74081 18.3801C7.18302 18.4039 6.62704 18.1583 6.07207 17.6423C5.71787 17.3333 5.27483 16.8037 4.74408 16.0534C4.17464 15.2522 3.70647 14.3231 3.3397 13.2639C2.94691 12.1198 2.75 11.0119 2.75 9.93933C2.75 8.71069 3.01549 7.65101 3.54725 6.763C3.96517 6.04972 4.52115 5.48707 5.217 5.07401C5.91285 4.66096 6.66472 4.45047 7.47442 4.43701C7.91746 4.43701 8.49845 4.57405 9.22044 4.84338C9.9404 5.11362 10.4027 5.25066 10.6054 5.25066C10.7569 5.25066 11.2704 5.09042 12.141 4.77096C12.9643 4.47469 13.6591 4.35202 14.2283 4.40034C15.7708 4.52482 16.9296 5.13286 17.7002 6.2283C16.3208 7.06414 15.6384 8.23483 15.652 9.73665C15.6644 10.9064 16.0888 11.8799 16.9228 12.6528C17.3008 13.0115 17.7229 13.2888 18.1925 13.4857C18.0907 13.7811 17.9832 14.064 17.8689 14.3356ZM14.3313 0.415111C14.3313 1.33199 13.9963 2.18807 13.3287 2.98045C12.5229 3.92244 11.5484 4.46677 10.4915 4.38088C10.478 4.27088 10.4702 4.15511 10.4702 4.03346C10.4702 3.15326 10.8534 2.21127 11.5339 1.44107C11.8736 1.0511 12.3057 0.726847 12.8296 0.468185C13.3524 0.213382 13.847 0.0724703 14.3121 0.0483398C14.3257 0.170912 14.3313 0.293492 14.3313 0.415099V0.415111Z" fill="#020617"/>
</g>
<defs>
<clipPath id="clip0_2116_99">
<rect width="20" height="20" fill="white" transform="translate(0.5 0.0483398)"/>
</clipPath>
</defs>
</svg>
