<svg width="36" height="36" viewBox="0 0 36 36" fill="none" xmlns="http://www.w3.org/2000/svg">
<path d="M31.2647 25.7173C30.7657 26.8703 30.1749 27.9315 29.4905 28.9072C28.5576 30.2374 27.7937 31.1581 27.205 31.6694C26.2925 32.5086 25.3147 32.9384 24.2677 32.9628C23.5161 32.9628 22.6096 32.749 21.5545 32.3151C20.4959 31.8832 19.523 31.6694 18.6335 31.6694C17.7005 31.6694 16.7 31.8832 15.6297 32.3151C14.5579 32.749 13.6944 32.9751 13.0342 32.9975C12.0302 33.0403 11.0294 32.5982 10.0305 31.6694C9.39294 31.1133 8.59547 30.16 7.64013 28.8095C6.61512 27.3673 5.77243 25.6949 5.11225 23.7883C4.40521 21.7289 4.05078 19.7347 4.05078 17.8041C4.05078 15.5925 4.52865 13.6851 5.48583 12.0867C6.23808 10.8028 7.23885 9.79001 8.49138 9.04652C9.74391 8.30302 11.0973 7.92414 12.5547 7.8999C13.3522 7.8999 14.398 8.14658 15.6976 8.63138C16.9935 9.11781 17.8256 9.36449 18.1904 9.36449C18.4632 9.36449 19.3875 9.07605 20.9546 8.50101C22.4365 7.96773 23.6872 7.74693 24.7118 7.83391C27.4882 8.05797 29.574 9.15244 30.9612 11.1242C28.4781 12.6287 27.2498 14.736 27.2743 17.4393C27.2967 19.5449 28.0606 21.2971 29.5618 22.6883C30.2422 23.3341 31.002 23.8331 31.8473 24.1876C31.664 24.7192 31.4705 25.2284 31.2647 25.7173ZM24.8971 0.660493C24.8971 2.31087 24.2942 3.85182 23.0924 5.27811C21.6421 6.97369 19.8878 7.95347 17.9855 7.79887C17.9613 7.60087 17.9472 7.39249 17.9472 7.17352C17.9472 5.58916 18.6369 3.89358 19.8618 2.50721C20.4733 1.80527 21.251 1.22162 22.1941 0.756026C23.1352 0.297381 24.0253 0.0437401 24.8625 0.000305176C24.887 0.220935 24.8971 0.441578 24.8971 0.660472V0.660493Z" fill="white"/>
</svg>
