<svg width="20" height="20" viewBox="0 0 20 20" fill="none" xmlns="http://www.w3.org/2000/svg">
<g clip-path="url(#clip0_260_1321)">
<path d="M12.9848 7.34717C14.4799 7.34717 15.9138 7.9411 16.971 8.99831C18.0281 10.0555 18.6221 11.4894 18.6221 12.9845C18.6257 14.0942 18.2977 15.1796 17.6804 16.1016L18.6221 18.6218L15.452 18.0514C14.6895 18.4232 13.8531 18.6182 13.0049 18.6218C12.1567 18.6254 11.3186 18.4374 10.553 18.0721C9.78752 17.7068 9.11432 17.1734 8.58359 16.5117C8.05286 15.8501 7.67827 15.0772 7.48777 14.2506C7.29727 13.4241 7.29573 12.5652 7.4833 11.7379C7.67087 10.9107 8.0427 10.1365 8.57107 9.4729C9.09943 8.80934 9.77074 8.27359 10.5349 7.90553C11.2992 7.53747 12.1366 7.34661 12.9848 7.34717Z" stroke="#FF8500" stroke-width="1.43" stroke-linecap="round" stroke-linejoin="round"/>
<path d="M13.7943 4.04448C12.901 2.90783 11.6756 2.07799 10.2886 1.6705C8.90153 1.26301 7.42196 1.29816 6.05584 1.77105C4.68973 2.24394 3.50507 3.13103 2.66678 4.30882C1.8285 5.48659 1.37832 6.89647 1.37894 8.34211C1.37483 9.71629 1.78129 11.0604 2.54619 12.202L1.37894 15.3059L4.19096 14.8018" stroke="#FF8500" stroke-width="1.43" stroke-linecap="round" stroke-linejoin="round"/>
</g>
<defs>
<clipPath id="clip0_260_1321">
<rect width="20" height="20" fill="white"/>
</clipPath>
</defs>
</svg>
