<svg width="16" height="16" viewBox="0 0 16 16" fill="none" xmlns="http://www.w3.org/2000/svg">
<g clip-path="url(#clip0_260_1212)">
<path fill-rule="evenodd" clip-rule="evenodd" d="M3.54925 3.04962C2.5232 4.0764 1.92914 5.63294 1.92914 7.75445C1.92914 9.05008 2.15162 10.1359 2.55597 11.0155C2.63448 11.1863 2.6425 11.3811 2.57831 11.5578L1.51167 14.4931L4.57297 13.472C4.74091 13.416 4.92367 13.4243 5.0858 13.4954C5.94752 13.8731 7.0013 14.0803 8.24998 14.0803C10.3696 14.0803 11.9247 13.4859 12.9508 12.4593C13.9768 11.4325 14.5709 9.87595 14.5709 7.75445C14.5709 5.63294 13.9768 4.0764 12.9508 3.04962C11.9247 2.02291 10.3696 1.42857 8.24998 1.42857C6.13036 1.42857 4.57522 2.02291 3.54925 3.04962ZM2.53873 2.03983C3.90471 0.672886 5.86712 0 8.24998 0C10.6328 0 12.5952 0.672886 13.9613 2.03983C15.3271 3.40671 15.9994 5.37025 15.9994 7.75445C15.9994 10.1386 15.3271 12.1022 13.9613 13.469C12.5952 14.836 10.6328 15.5089 8.24998 15.5089C6.95794 15.5089 5.79036 15.3118 4.77185 14.9115L1.7125 15.9321C0.679214 16.2768 -0.292453 15.2752 0.0787887 14.2535L1.13851 11.3372C0.711012 10.2942 0.500578 9.09078 0.500578 7.75445C0.500578 5.37025 1.17285 3.40671 2.53873 2.03983ZM8.27966 4.06055C8.75304 4.06055 9.1368 4.4443 9.1368 4.91769V6.86272H11.0817C11.5551 6.86272 11.9389 7.24648 11.9389 7.71986C11.9389 8.19326 11.5551 8.57701 11.0817 8.57701H9.1368V10.5221C9.1368 10.9955 8.75304 11.3792 8.27966 11.3792C7.80628 11.3792 7.42252 10.9955 7.42252 10.5221V8.57701H5.47734C5.00396 8.57701 4.6202 8.19326 4.6202 7.71986C4.6202 7.24648 5.00396 6.86272 5.47734 6.86272H7.42252V4.91769C7.42252 4.4443 7.80628 4.06055 8.27966 4.06055Z" fill="#FF8500"/>
</g>
<defs>
<clipPath id="clip0_260_1212">
<rect width="16" height="16" fill="white"/>
</clipPath>
</defs>
</svg>
