<svg width="20" height="20" viewBox="0 0 20 20" fill="none" xmlns="http://www.w3.org/2000/svg">
<g clip-path="url(#clip0_260_1330)">
<path d="M10.0066 18.2769L6.02734 18.6218L6.37222 14.6425L14.6491 6.41863C14.7726 6.29228 14.9202 6.19191 15.083 6.12338C15.2459 6.05484 15.4208 6.01953 15.5975 6.01953C15.7742 6.01953 15.9491 6.05484 16.112 6.12338C16.2749 6.19191 16.4224 6.29228 16.5459 6.41863L18.2305 8.11646C18.3548 8.23976 18.4534 8.38646 18.5208 8.5481C18.5882 8.70974 18.6228 8.88312 18.6228 9.05822C18.6228 9.23332 18.5882 9.4067 18.5208 9.56834C18.4534 9.72998 18.3548 9.87668 18.2305 9.99998L10.0066 18.2769Z" stroke="#FF8500" stroke-width="1.43" stroke-linecap="round" stroke-linejoin="round"/>
<path d="M1.72267 5.93913C1.26432 5.85805 1.26432 5.18897 1.72267 5.10788C3.38319 4.81413 4.70392 3.52801 5.06433 1.85378L5.09196 1.72545C5.19113 1.26481 5.83614 1.26194 5.93926 1.72168L5.97281 1.87124C6.34657 3.53758 7.66765 4.81282 9.32356 5.10576C9.78426 5.18726 9.78426 5.85976 9.32356 5.94125C7.66765 6.23419 6.34657 7.50944 5.97281 9.17578L5.93926 9.32533C5.83614 9.78507 5.19113 9.78221 5.09196 9.32156L5.06433 9.19323C4.70392 7.519 3.38319 6.23288 1.72267 5.93913Z" stroke="#FF8500" stroke-width="1.43" stroke-linecap="round" stroke-linejoin="round"/>
</g>
<defs>
<clipPath id="clip0_260_1330">
<rect width="20" height="20" fill="white"/>
</clipPath>
</defs>
</svg>
