<svg width="40" height="40" viewBox="0 0 40 40" fill="none" xmlns="http://www.w3.org/2000/svg">
<path fill-rule="evenodd" clip-rule="evenodd" d="M19.0338 1.80396C19.58 1.3033 20.4183 1.3033 20.9645 1.80396L37.1809 16.669C38.0663 17.4807 38.5706 18.6269 38.5706 19.8282V34.2856C38.5706 36.6525 36.6517 38.5713 34.2849 38.5713H5.71345C3.34651 38.5713 1.42773 36.6525 1.42773 34.2856V19.8282C1.42773 18.6269 1.93193 17.4807 2.81749 16.669L19.0338 1.80396ZM12.1248 22.3477C11.8435 21.4024 10.8492 20.8642 9.90396 21.1455C8.95871 21.4268 8.42048 22.4212 8.70182 23.3664C10.1503 28.2335 14.6576 31.7856 19.9992 31.7856C25.3408 31.7856 29.848 28.2335 31.2966 23.3664C31.578 22.4212 31.0397 21.4268 30.0946 21.1455C29.1492 20.8642 28.1549 21.4024 27.8736 22.3477C26.8634 25.742 23.7177 28.2142 19.9992 28.2142C16.2808 28.2142 13.135 25.742 12.1248 22.3477Z" fill="white"/>
</svg>
