<svg width="18" height="18" viewBox="0 0 18 18" fill="none" xmlns="http://www.w3.org/2000/svg">
<path d="M15.125 4.23584C15.125 4.96071 14.5374 5.54834 13.8125 5.54834C13.0876 5.54834 12.5 4.96071 12.5 4.23584C12.5 3.51097 13.0876 2.92334 13.8125 2.92334C14.5374 2.92334 15.125 3.51097 15.125 4.23584Z" fill="white"/>
<path fill-rule="evenodd" clip-rule="evenodd" d="M9 13.4233C11.4162 13.4233 13.375 11.4646 13.375 9.04834C13.375 6.63209 11.4162 4.67334 9 4.67334C6.58375 4.67334 4.625 6.63209 4.625 9.04834C4.625 11.4646 6.58375 13.4233 9 13.4233ZM9 11.6733C10.4497 11.6733 11.625 10.4981 11.625 9.04834C11.625 7.59859 10.4497 6.42334 9 6.42334C7.55025 6.42334 6.375 7.59859 6.375 9.04834C6.375 10.4981 7.55025 11.6733 9 11.6733Z" fill="white"/>
<path fill-rule="evenodd" clip-rule="evenodd" d="M0.25 8.69834C0.25 5.75806 0.25 4.28793 0.822216 3.16489C1.32555 2.17704 2.1287 1.37389 3.11655 0.870556C4.23959 0.29834 5.70972 0.29834 8.65 0.29834H9.35C12.2903 0.29834 13.7604 0.29834 14.8835 0.870556C15.8713 1.37389 16.6744 2.17704 17.1778 3.16489C17.75 4.28793 17.75 5.75806 17.75 8.69834V9.39834C17.75 12.3386 17.75 13.8088 17.1778 14.9318C16.6744 15.9196 15.8713 16.7228 14.8835 17.2261C13.7604 17.7983 12.2903 17.7983 9.35 17.7983H8.65C5.70972 17.7983 4.23959 17.7983 3.11655 17.2261C2.1287 16.7228 1.32555 15.9196 0.822216 14.9318C0.25 13.8088 0.25 12.3386 0.25 9.39834V8.69834ZM8.65 2.04834H9.35C10.849 2.04834 11.868 2.0497 12.6557 2.11406C13.4229 2.17674 13.8153 2.29036 14.089 2.42982C14.7475 2.76537 15.283 3.30081 15.6185 3.95937C15.758 4.23307 15.8716 4.62543 15.9343 5.39266C15.9986 6.18031 16 7.19933 16 8.69834V9.39834C16 10.8974 15.9986 11.9164 15.9343 12.704C15.8716 13.4713 15.758 13.8636 15.6185 14.1373C15.283 14.7959 14.7475 15.3313 14.089 15.6669C13.8153 15.8063 13.4229 15.9199 12.6557 15.9826C11.868 16.047 10.849 16.0483 9.35 16.0483H8.65C7.15099 16.0483 6.13197 16.047 5.34432 15.9826C4.57709 15.9199 4.18473 15.8063 3.91103 15.6669C3.25247 15.3313 2.71703 14.7959 2.38148 14.1373C2.24202 13.8636 2.1284 13.4713 2.06572 12.704C2.00136 11.9164 2 10.8974 2 9.39834V8.69834C2 7.19933 2.00136 6.18031 2.06572 5.39266C2.1284 4.62543 2.24202 4.23307 2.38148 3.95937C2.71703 3.30081 3.25247 2.76537 3.91103 2.42982C4.18473 2.29036 4.57709 2.17674 5.34432 2.11406C6.13197 2.0497 7.15099 2.04834 8.65 2.04834Z" fill="white"/>
</svg>
