<svg width="63" height="24" viewBox="0 0 63 24" fill="none" xmlns="http://www.w3.org/2000/svg">
<path d="M4.40999 11.5C1.97442 11.5 2.35447e-08 9.52558 5.25886e-08 7.09001L6.0347e-08 6.4394C8.93909e-08 4.00383 1.97442 2.02941 4.40999 2.02941L5.0606 2.02941C7.49617 2.02941 9.47059 4.00383 9.47059 6.4394L9.47059 11.5L4.40999 11.5Z" fill="#FF9212"/>
<path d="M10.5293 6.73529C10.5293 4.12006 12.6494 2 15.2646 2C17.8798 2 19.9999 4.12006 19.9999 6.73529C19.9999 9.35053 17.8798 11.4706 15.2646 11.4706C12.6494 11.4706 10.5293 9.35053 10.5293 6.73529Z" fill="#FFB151"/>
<path d="M0 17.2647C0 14.6495 2.12006 12.5294 4.73529 12.5294C7.35053 12.5294 9.47059 14.6495 9.47059 17.2647C9.47059 19.8799 7.35053 22 4.73529 22C2.12006 22 0 19.8799 0 17.2647Z" fill="#FFB151"/>
<path d="M15.59 12.5294C18.0256 12.5294 20 14.5038 20 16.9394L20 17.59C20 20.0256 18.0256 22 15.59 22L14.9394 22C12.5038 22 10.5294 20.0256 10.5294 17.59L10.5294 12.5294L15.59 12.5294Z" fill="#FF9212"/>
<path d="M29.56 4.72H31.46V11.84L38.7 4.72H41.16L35.14 10.48L41.4 19H39L33.84 11.78L31.46 14V19H29.56V4.72ZM43.7798 4.72H45.6798V19H43.7798V4.72ZM49.6556 4.72H51.6756L59.1956 16.3H59.2356V4.72H61.0356V19H58.9556L51.4956 7.54H51.4556V19H49.6556V4.72Z" fill="#020617"/>
</svg>
