<svg width="40" height="40" viewBox="0 0 40 40" fill="none" xmlns="http://www.w3.org/2000/svg">
<g clip-path="url(#clip0_260_1286)">
<path fill-rule="evenodd" clip-rule="evenodd" d="M22.7475 18.407L25.6486 20.9213C26.5576 21.7091 27.7203 22.1429 28.9231 22.1429H35.0003C36.1837 22.1429 37.1431 21.1835 37.1431 20C37.1431 18.8165 36.1837 17.8571 35.0003 17.8571H28.9231C28.7514 17.8571 28.5854 17.7952 28.4554 17.6826L21.9778 12.0687C19.2155 9.67466 15.1669 9.50189 12.2106 11.6519L8.02562 14.6956C7.06851 15.3917 6.85691 16.7318 7.55299 17.6889C8.24908 18.6461 9.58925 18.8577 10.5464 18.1616L14.7314 15.1179C16.0751 14.1407 17.9154 14.2192 19.171 15.3074L19.5054 15.5972L16.7594 19.0754C15.129 21.1406 15.3782 24.116 17.3293 25.8813L21.9081 30.024C22.0577 30.1594 22.1431 30.3517 22.1431 30.5537V37.8571C22.1431 39.0406 23.1025 40 24.286 40C25.4694 40 26.4289 39.0406 26.4289 37.8571V30.5537C26.4289 29.1409 25.8311 27.7939 24.7834 26.846L20.2046 22.7033C19.9259 22.4511 19.8903 22.0261 20.1232 21.731L22.7475 18.407ZM14.3241 26.565C15.4322 26.9805 15.9937 28.2157 15.5781 29.3237L14.8257 31.3303C13.6757 34.3969 10.7441 36.4286 7.46885 36.4286H5.00028C3.81682 36.4286 2.85742 35.4691 2.85742 34.2857C2.85742 33.1023 3.81682 32.1429 5.00028 32.1429H7.46885C8.95759 32.1429 10.2902 31.2194 10.8129 29.8254L11.5653 27.819C11.9808 26.7109 13.216 26.1495 14.3241 26.565ZM34.286 5.71429C34.286 2.55837 31.7277 2.76e-07 28.5717 0C25.4158 -2.75714e-07 22.8574 2.55837 22.8574 5.71429C22.8574 8.8702 25.4158 11.4286 28.5717 11.4286C31.7277 11.4286 34.286 8.8702 34.286 5.71429Z" fill="white"/>
</g>
<defs>
<clipPath id="clip0_260_1286">
<rect width="40" height="40" fill="white"/>
</clipPath>
</defs>
</svg>
