<svg width="40" height="40" viewBox="0 0 40 40" fill="none" xmlns="http://www.w3.org/2000/svg">
<g clip-path="url(#clip0_260_1292)">
<path fill-rule="evenodd" clip-rule="evenodd" d="M36.0251 0.627629C38.5703 3.17277 40 6.62471 40 10.2241C40 13.8235 38.5703 17.2754 36.0251 19.8205C35.1883 20.6574 33.8314 20.6574 32.9946 19.8205C32.1577 18.9837 32.1577 17.6269 32.9946 16.7901C34.736 15.0487 35.7143 12.6868 35.7143 10.2241C35.7143 7.76134 34.736 5.39949 32.9946 3.65809C32.1577 2.82125 32.1577 1.46447 32.9946 0.627629C33.8314 -0.20921 35.1883 -0.209209 36.0251 0.627629ZM5.71429 11.4286C5.71429 6.69471 9.55186 2.85714 14.2857 2.85714C19.0196 2.85714 22.8571 6.69471 22.8571 11.4286C22.8571 16.1624 19.0196 20 14.2857 20C9.55186 20 5.71429 16.1624 5.71429 11.4286ZM14.2857 22.8571C6.39594 22.8571 0 29.2531 0 37.1429V38.5714C0 39.3603 0.639594 40 1.42857 40H27.1429C27.9318 40 28.5714 39.3603 28.5714 38.5714V37.1429C28.5714 29.2531 22.1755 22.8571 14.2857 22.8571ZM32.8577 10.2242C32.8577 8.51929 32.1803 6.88414 30.9749 5.67854C30.138 4.84171 28.7811 4.84171 27.9443 5.67854C27.1075 6.5154 27.1075 7.87217 27.9443 8.709C28.3462 9.11086 28.572 9.65591 28.572 10.2242C28.572 10.7925 28.3462 11.3376 27.9443 11.7395C27.1075 12.5763 27.1075 13.9331 27.9443 14.7699C28.7811 15.6068 30.138 15.6068 30.9749 14.7699C32.1803 13.5643 32.8577 11.9292 32.8577 10.2242Z" fill="white"/>
</g>
<defs>
<clipPath id="clip0_260_1292">
<rect width="40" height="40" fill="white"/>
</clipPath>
</defs>
</svg>
